<?xml version="1.0" encoding="UTF-8"?>
<svg id="_레이어_1" data-name=" 레이어 1" xmlns="http://www.w3.org/2000/svg" viewBox="0 0 677.25 677.2">
  <defs>
    <style>
      .cls-1, .cls-2 {
        fill: #192642;
      }

      .cls-2 {
        fill-rule: evenodd;
      }
    </style>
  </defs>
  <g>
    <path class="cls-2" d="M145.08,572.33h59.3c2.3,0,3.61,2.63,2.22,4.46l-20.72,27.53c-.85,1.14-2.45,1.46-3.67.72-13.72-8.25-26.73-17.55-38.92-27.79-1.99-1.67-.8-4.93,1.8-4.93h-.01Z"/>
    <path class="cls-2" d="M238.76,534.11l-22.08,29.32c-.53.7-1.35,1.11-2.22,1.11h-84.26c-.72,0-1.42-.27-1.94-.78-9.66-9.24-18.71-19.12-27.07-29.57-1.47-1.83-.19-4.55,2.16-4.55h133.21c2.3,0,3.61,2.63,2.22,4.46h-.01Z"/>
    <path class="cls-2" d="M268.22,495l-19.39,25.75c-.53.7-1.35,1.11-2.22,1.11H93.23c-.9,0-1.75-.43-2.29-1.17-5.98-8.35-11.54-17.03-16.67-26-1.06-1.85.3-4.15,2.43-4.15h189.28c2.3,0,3.61,2.63,2.22,4.46h0Z"/>
    <path class="cls-2" d="M463.53,572.33h69.9c2.61,0,3.79,3.26,1.8,4.93-14.98,12.57-31.16,23.72-48.39,33.26-1.27.7-2.87.31-3.67-.9l-21.96-32.96c-1.24-1.85.1-4.34,2.32-4.34h-.01Z"/>
    <path class="cls-2" d="M435.08,529.65h140.1c2.35,0,3.63,2.72,2.16,4.55-8.37,10.45-17.42,20.33-27.07,29.57-.52.49-1.22.78-1.94.78h-93.71c-.93,0-1.8-.47-2.32-1.24l-19.54-29.32c-1.24-1.85.1-4.34,2.32-4.34h0Z"/>
    <path class="cls-2" d="M604.25,494.69c-5.13,8.96-10.69,17.63-16.67,26-.53.73-1.37,1.17-2.29,1.17h-159.13c-.93,0-1.8-.47-2.32-1.24l-17.16-25.75c-1.24-1.85.1-4.34,2.32-4.34h192.8c2.14,0,3.5,2.31,2.43,4.15h.01Z"/>
    <path class="cls-2" d="M145.08,572.33h59.3c2.3,0,3.61,2.63,2.22,4.46l-20.72,27.53c-.85,1.14-2.45,1.46-3.67.72-13.72-8.25-26.73-17.55-38.92-27.79-1.99-1.67-.8-4.93,1.8-4.93h-.01Z"/>
    <path class="cls-2" d="M238.76,534.11l-22.08,29.32c-.53.7-1.35,1.11-2.22,1.11h-84.26c-.72,0-1.42-.27-1.94-.78-9.66-9.24-18.71-19.12-27.07-29.57-1.47-1.83-.19-4.55,2.16-4.55h133.21c2.3,0,3.61,2.63,2.22,4.46h-.01Z"/>
    <path class="cls-2" d="M268.22,495l-19.39,25.75c-.53.7-1.35,1.11-2.22,1.11H93.23c-.9,0-1.75-.43-2.29-1.17-5.98-8.35-11.54-17.03-16.67-26-1.06-1.85.3-4.15,2.43-4.15h189.28c2.3,0,3.61,2.63,2.22,4.46h0Z"/>
    <path class="cls-2" d="M463.53,572.33h69.9c2.61,0,3.79,3.26,1.8,4.93-14.98,12.57-31.16,23.72-48.39,33.26-1.27.7-2.87.31-3.67-.9l-21.96-32.96c-1.24-1.85.1-4.34,2.32-4.34h-.01Z"/>
    <path class="cls-2" d="M435.08,529.65h140.1c2.35,0,3.63,2.72,2.16,4.55-8.37,10.45-17.42,20.33-27.07,29.57-.52.49-1.22.78-1.94.78h-93.71c-.93,0-1.8-.47-2.32-1.24l-19.54-29.32c-1.24-1.85.1-4.34,2.32-4.34h0Z"/>
    <path class="cls-2" d="M604.25,494.69c-5.13,8.96-10.69,17.63-16.67,26-.53.73-1.37,1.17-2.29,1.17h-159.13c-.93,0-1.8-.47-2.32-1.24l-17.16-25.75c-1.24-1.85.1-4.34,2.32-4.34h192.8c2.14,0,3.5,2.31,2.43,4.15h.01Z"/>
  </g>
  <g>
    <path class="cls-2" d="M334.39,612.41h3.48l.63-.32v-1.27l-.95-1.27-.32-.95-.63-.63-.63-1.27v-.63l-.32-.32v-3.48l-.32-.32v-.63l-.95-.95-1.27-.63-.95-.95v-.63l-.32-.32v-1.58l.32-.32v-.95l.32-.32v-2.85l-1.9-1.9-.63-.32h-1.58l-2.85,1.9h-.63l-2.85,1.58-1.58.32-1.58.95h-.63l-.32.32h-.63l-.32.32-1.58.32-.95.63h-.95l-.32.32-2.22.32-.95.63h-.63l-.32.32h-.95l-.32.32h-.95l-.32.32h-.63l-.32.32h-.95l-.32.32h-1.9l-.32.32h-1.9l-.32.32h-3.81c-.42.32-.84.63-1.27.95,5.86,4.88,11.37,7.32,14.98,8.59,5.66,1.99,10.82,2.56,13.58,2.87,1.32.15,4.84.48,9.32.57.73.01,1.33.02,1.74.02l.05-.02ZM384.46,601.01c-.32-.42-.63-.84-.95-1.27h-1.27l-.32-.32h-4.11l-.32-.32h-.95l-.32-.32h-1.27l-.32-.32h-.95l-.32-.32h-.95l-.32-.32h-.95l-.32-.32h-1.27l-.32-.32h-.63l-.32-.32h-.63l-1.27-.63h-.95l-.32-.32-1.58-.32-.95-.63h-.63l-.32-.32-1.58-.32-1.27-.95h-.63l-4.44-2.22-2.53-1.9h-1.9l-.63.32-2.53,2.53-.32.63v1.27l.95,1.58v.95l.32.32v1.27l-.32.63-1.27,1.27-.95.32-.95.95v3.81l-.32.32v1.27l-.63.95v.63l-.63,1.27-.95,1.27v1.27l.32.32c5.21.68,14.28,1.15,24.82-2.06,8.32-2.55,14.45-6.45,18.28-9.34h.05ZM411.07,513.55h-2.22l-.32.32h-1.27l-.32.32h-.95l-.95.63h-.63l-1.27.63h-.95l-.32.32h-.95l-2.53,1.27h-.95l-.32.32h-.63l-1.58.95h-.63l-.32.32-1.58.32-2.22,1.27h-.63l-1.27.63-.63.63-1.58.63-.95.95-1.58.63-.95.95-1.27.63-2.53,2.22h-.32l-2.85,2.85v11.73l-.32.32v2.53l-.32.32v1.27l-.32.32v.95l-.32.32-.32,2.85-.32.32v.95l-.32.32v.63l-.63,1.27v.95l-.32.32v.95l-.32.32v.63l-.95,1.58-.32,1.58-3.81,7.6-.63.63-.32.95-1.27,1.58-.32.95-1.9,2.22v.32l-2.53,2.53v.32l-1.58,1.58v.32l-3.81,3.81v1.27l.32.32,2.53,1.27h.63l2.85,1.58h.63l.32.32,1.58.32,1.58.95h.95l.32.32h.63l1.27.63h.95l.32.32h.95l.32.32h1.58l.32.32h1.58l.32.32h1.27l.32.32h1.27l.32.32h1.9l.32.32h13.94l.32-.32h1.27l.32-.32h1.27l.32-.32h.95l.32-.32h1.27l.32-.32h1.27l.32-.32h.95l.32-.32h.63l.32-.32h.63l1.27-.63h.95l.32-.32h.63l1.58-.95,1.58-.32.63-.63,1.9-.95h.63l.63-.32.63-.63h.32l.63-.63h.32l.63-.63h.32l.63-.63,1.27-.63.95-.95.95-.32,1.58-1.58h.32l6.97-6.97v-.32l3.81-4.11v-.32l1.58-1.58v-.32l1.58-1.58v-.32l1.9-1.9h.32l.63-.63.32-.63v-1.27l-1.58-.95h-.63l-.32-.32h-.63l-1.27-.63h-.95l-.32-.32h-.63l-.32-.32h-.63l-1.27-.63h-.95l-.32-.32h-1.27l-.32-.32h-.95l-.95-.63h-.95l-.32-.32h-1.27l-.32-.32h-2.22l-.32-.32h-1.58l-.32-.32h-2.22l-.32-.32h-.95l-.32-.32h-6.66l-.32.32h-1.58l-.32.32h-2.85l-.63-.63v-.63l.32-.32v-.95l.63-1.27.63-.63.32-1.58.63-.95v-.63l.32-.32v-.63l.32-.32v-.63l.32-.32v-.63l.32-.32v-.63l.32-.32v-.63l.63-1.27v-1.58l.32-.32v-1.9l.32-.32v-.95l.32-.32v-1.27l.32-.32v-1.27l.32-.32v-4.76l.32-.32v-3.16l.32-.32v-4.44l.32-.32v-1.9l.32-.32v-2.85l-.32-.32h.02ZM390.79,569v.32l-.63.63v.32l-.63.63h-.32l-1.27,1.27h-.32l-2.22,2.22h-.32l-.63.63h-.32l-.32.32h-.32l-.32.32h-.32l-.32.32h-.32l-.63.63h-.32l-.32.32h-.32l-.32.32h-.63l-.32.32h-.32l-.32.32h-.32l-.32.32h-.32l-.32.32h-.32l-.32.32h-.32l-.32.32h-.63l-.32.32h-.32l-.32.32h-.32l-.32.32h-.32l-.32.32h-.95l-.32.32h-.95l-.32.32h-1.27l-.32.32h-.95l-.32.32h-1.58l-.32.32h-.63l-.32-.32h-.63l-.32-.32v-.32l.63-.63h.63l.32-.32h.95l.32-.32h.32l.32-.32h.32l.32-.32h.32l.32-.32h.63l.32-.32h.32l.32-.32h.63l.63-.63h.32l.32-.32h.32l.32-.32h.63l.32-.32h.63l.32-.32h.32l.32-.32h.63l.32-.32h.32l.32-.32h.63l.32-.32h.32l.32-.32h.32l.32-.32h.32l.32-.32h.63l.32-.32h.32l.32-.32h.32l.32-.32h.32l.63-.63h.63l.32-.32h.32l.32-.32h.32l.63-.63h.32l.63-.63h.32l.63-.63h.32l.32-.32h.32l.32-.32h.32l.32-.32h.32l.32-.32h.32l.32.32h-.01ZM268.8,513.23l-.63.63v3.81l.32.32v2.53l.32.32v3.48l.32.32v3.16l.32.32v3.48l.32.32v1.9l.32.32v1.27l.32.32v1.27l.32.32v1.27l.32.32v1.27l.32.32v.95l.32.32v.63l.32.32v.63l.63,1.27v.95l.32.32v.63l.63.95v.63l.63.95v.63l1.27,2.22v.63l.32.32v1.27l-.95.63h-.95l-.32-.32h-2.22l-.32-.32h-2.22l-.32-.32h-3.81l-.32.32h-2.22l-.32.32h-1.58l-.32.32h-2.22l-.32.32h-1.58l-.32.32h-1.27l-.32.32h-.95l-.32.32h-.63l-1.27.63h-1.27l-.32.32h-.95l-.32.32h-.63l-.32.32h-.63l-1.27.63h-1.27l-1.9.95h-.63l-1.27.63-.63.63v.95l.32.63,3.81,3.81.63,1.27,5.07,5.39v.32l1.58,1.58v.32l3.81,3.81h.32l3.81,3.48h.32l1.58,1.27.95.32.63.63h.32l.63.63h.32l.63.63h.32l1.27.95h.63l3.48,1.9h.63l2.53,1.27h.95l.32.32,1.58.32.95.63h.95l.32.32h.95l.32.32h1.58l.32.32h.95l.32.32h.95l.32.32h1.9l.32.32h13.31l.32-.32h1.27l.32-.32h1.27l.32-.32h1.58l.32-.32h1.9l.32-.32h1.27l.32-.32h.95l.32-.32h.63l1.27-.63,2.22-.32,2.22-1.27h.63l.32-.32,1.58-.32.63-.63,1.58-.32,2.53-1.27,1.27-1.27v-.63l-2.85-2.85v-.32l-3.81-4.11v-.32l-2.22-2.53-.95-1.9-.95-.95-.63-1.58-.63-.63-.95-2.22-.63-.63-1.9-3.81v-.63l-.32-.32v-.95l-.95-1.58v-.63l-.63-1.27v-.95l-.63-1.27v-.95l-.63-1.27v-.95l-.32-.32v-1.27l-.63-1.27v-.95l-.32-.32v-.95l-.32-.32v-1.9l-.32-.32v-12.99l-3.16-3.16h-.32l-.95-.95h-.32l-3.48-2.53-.95-.32-2.53-1.9-5.07-2.53h-.63l-.32-.32-1.58-.32-2.22-1.27h-.63l-.32-.32h-.95l-.95-.63h-.63l-1.27-.63h-.95l-.32-.32h-.63l-.32-.32h-.63l-1.27-.63h-.95l-.32-.32h-.95l-.32-.32-2.22-.32h-.01ZM289.07,569.63l.32-.32h.63l.32.32h.32l.32.32h.32l.63.63h.63l.32.32h.32l.32.32h.32l.32.32h.32l.32.32h.32l.32.32h.63l.32.32h.32l.32.32h.32l.63.63h.32l.32.32h.63l.32.32h.32l.32.32h.32l.32.32h.32l.32.32h.32l.32.32h.95l.32.32h.63l.32.32h.63l.32.32h.63l.32.32h.32l.32.32h.95l.32.32h.63l.63.63h.32l.32.32h.32l.32.32h.32l.32.32h.63l.63.63h.32l.63.63h.63l.32.32h.32l.32.32v.63l-.32.32h-2.22l-.32-.32h-1.27l-.32-.32h-.95l-.32-.32h-.95l-.32-.32h-1.27l-.32-.32h-.63l-.32-.32h-.32l-.32-.32h-.32l-.32-.32h-.32l-.32-.32h-.63l-.32-.32h-.63l-.32-.32h-.32l-.32-.32h-.32l-.32-.32h-.32l-.32-.32h-.63l-.32-.32h-.32l-.32-.32h-.32l-.32-.32h-.32l-.63-.63h-.32l-.32-.32h-.32l-.32-.32h-.32l-.63-.63h-.32l-.32-.32h-.32l-.95-.95h-.32l-3.16-3.16v-.32h0ZM339.45,471.08l-.95,1.27v.32l-1.9,2.22-.95,1.9-.95.95-.63,1.27-.95.95-.32.95-1.27,1.27v.32l-1.9,2.53-.32.95-.95.95v.32l-1.9,2.53-.32.95-1.27,1.27-.32.95-1.27,1.58-.63,1.58-.95,1.27v.63l-.32.63-.63.63-2.22,4.44v.63l-1.27,1.58-.32.63v.63l-.32.32v.63l-1.27,2.22v.63l-.32.32-.32,1.58-.95,1.58v1.27l-.32.32v.95l-.95,1.9v.95l-.32.32v1.27l-.32.32v1.58l-.32.32v.95l-.32.32v1.27l-.32.32v1.58l-.32.32v3.48l-.32.32v9.82l.32.32v3.48l.32.32v1.27l.32.32v.63l.63,1.27v1.58l.32.32v.95l.32.32.32,1.58.95,1.58v1.27l1.27,2.22.32,1.58,1.9,3.81,1.27,1.58.32.95.63.63v.32l.63.63v.32l.63.63v.32l.63.63.63,1.27.95.95v.32l3.16,3.16v.32l2.22,2.22v.32l1.9,1.9h.32l1.27,1.27h.32l4.44,4.44h.32l2.22,2.22h1.27l.32-.63,1.9-1.9h.32l2.22-2.22h.32l.32-.63h.32l2.22-2.22h.32l6.02-6.34v-.32l1.27-1.27v-.32l1.58-1.58v-.32l.63-.63v-.32l2.53-3.48.95-2.22.63-.63.63-1.27v-.63l.63-.63.63-1.27.32-1.58,1.27-2.22v-.95l.32-.32v-.63l.32-.32v-.63l.32-.32v-.63l.63-1.27v-1.27l.32-.32v-1.27l.63-1.27v-1.27l.32-.32v-1.9l.32-.32v-3.81l.32-.32v-4.76l-.32-.32v-5.71l-.32-.32v-1.9l-.32-.32v-1.27l-.32-.32v-.95l-.32-.32v-1.27l-.32-.32v-1.58l-.32-.32v-.95l-.63-.95v-.95l-.32-.32-.32-2.22-.95-1.58v-.63l-.32-.32-.32-1.58-1.9-3.48v-.63l-.63-.63-.95-1.9v-.63l-.63-.63-.32-.63v-.63l-.63-1.27-.63-.63-1.27-2.85-.63-.63-.32-.95-.95-.95-.63-1.58-.95-.95-.95-2.22-.95-.95-.32-.95-1.58-1.58-.32-.95-.63-.63-.95-1.9-.95-.95-.32-.95-1.27-1.58-.32-.95-1.27-1.27-.63-1.27-.95-.95-.63-1.27-.95-.95-.32-.95h-.95.06ZM425.88,464.81v16.06l-.27.27v.56l.27.56.83.56h92.76l1.11-.83v-5.82l.27-.27v-2.77l-.27-.27v-7.75l-.56-.56v-.27l-.56-.27h-92.48l-1.11.83v-.02ZM253.38,464.81l-.27-.56-.83-.56h-.83l-.27.27h-90.82l-.56.27-.83,1.11v2.21l-.27.27v6.09l.27.27v7.75l1.11.83h92.76l.83-.83v-3.88l-.27-.27v-13.01l-.02.02ZM462.98,438.79v5.26l.27.27v7.48l-.27.27v5.26l.83,1.11h27.14l.56-.27.27-.56v-.56l.27-.27v-2.21l.27-.27v-6.92l-.27-.27v-.83l-.27-.27v-.56l-.27-.27v-.56l-.27-.27v-.56l-.27-.56-1.11-1.38-.27-.83-2.5-2.21h-.27l-.56-.56h-.83l-.27-.27h-3.88l-.27-.27h-4.71l-.27.27h-2.21l-.27.27h-9.97l-.56.56-.02-.04ZM187.19,445.98v.83l-.27.27v5.26l.27.27v4.44l.27.56,1.11.83h26.86l.56-.27.27-.56v-.56l.27-.27v-4.44l-.27-.27v-3.88l.27-.27v-8.86l-.27-.56-.56-.27h-10.53l-.27-.27h-1.38l-.27-.27h-6.92l-.27.27h-1.38l-.27.27-1.38.27-.56.56h-.27l-2.21,2.21-.56,1.11-.83.83-1.38,2.77h-.02ZM603.59,383.5l-2.78-2.78-1.24-.62-1.24-1.24-.93-.31-1.54-1.24-.62-.31h-.62l-1.24-.93h-.62l-.31-.31h-1.54l-.31-.31h-1.54l-.31-.31h-.62l-1.24-.62-.93-.93h-.31l-.62-.62-1.24-.62-.93-.93-1.24-.62h-5.25l-.31.31h-1.24l-.31.31h-.93l-.93.62h-.62l-.31.31h-.62l-.31.31-1.54.31-3.09,1.54-.62.62-1.24.62-.93.93h-.31l-.93.93v.31l-.62.62-.62,1.24v.62l.31.62,1.24.62h2.16l.31.31h1.24l.31.31h.93l.31.31h.62l5.56,2.78.93.93h.31l3.71,3.71v.31l1.24,1.24.31.93.93.93.31.62v.62l.62.93v.62l.62.93v.93l.31.31v2.47l.31.31v3.4l-.31.31v2.16l-.31.31v1.24l-.31.31-.31,1.54-.93,1.85-.62.62v.31l-.62.62-.62,1.24-1.85,1.85h-.31l-1.85,1.54-2.47,1.24h-.62l-1.24.62h-.93l-.31.31h-5.56l-.31-.31h-.93l-.31-.31h-.62l-1.24-.93h-.62l-.62-.62h-.31l-2.47-2.47-.31-.62.31-1.54.62-.62h.31l2.78-2.78.62-1.24v-.93l.31-.31v-1.54l.31-.31v-1.85l-.31-.31v-2.16l-.31-.31v-.93l-.62-1.24-.62-.62-.31-.93-1.24-1.24v-.31l-3.09-3.09-5.56-2.78h-.62l-.31-.31h-1.24l-.31-.31h-5.87l-.31.31h-1.54l-.31.31h-.62l-.31.31h-.62l-.31.31h-.62l-.31.31-1.54.31-1.24.93h-.62l-1.85.93-.93.93-1.24.62-3.09,3.09v.31l-1.24,1.24-.31.93-1.54,1.85-1.54,3.09-.31,2.16-.31.31v.62l-.31.31v.93l-.31.31v1.54l-.31.31v6.8l.31.31v1.54l.31.31v.62l.62,1.24v.93l.31.31v.62l.62,1.24.62.62.62,1.24,2.16,2.16h.31l1.24,1.24.93.31.93.93v.31l.93,1.24v.62l.31.31v.62l.31.31.31,1.54,1.54,1.85v.31l2.47,2.47.93.31.62.62h.31l1.24.93h.62l1.54.93h.62l.31.31h.93l.31.31h1.85l.31.31h1.24l.31.31h3.71l.31-.31h1.54l.31-.31h.93l.31-.31h.93l.31-.31,1.54-.31,1.85-.93,1.24-.93h1.54l2.78,1.54h.62l.93.62,2.16.31.31.31h1.85l.31.31h6.18l.31-.31h2.16l.31-.31h1.24l.31-.31,2.16-.31.93-.62h.62l.31-.31,1.54-.31,1.24-.93h.62l.62-.31.62-.62,1.24-.62.93-.93h.31l2.47-2.47h.31l2.16-2.47v-.31l.62-.62.31-.93,1.24-1.54.93-1.85v-.62l.62-.93v-.93l.31-.31v-.93l.31-.62,1.85-1.85h.31l2.47-2.16v-.31l1.24-1.24v-.31l1.24-1.54.62-1.54.93-1.24v-.62l.31-.31v-.62l.31-.31.31-1.54.93-1.85v-2.78l.31-.31v-4.94l-.31-.31v-3.09l-.31-.31-.31-2.16-.62-1.24v-.93l-.31-.31-.31-1.54-1.85-3.71-.62-.62-.31-.93-2.47-2.78v-.31ZM76.27,383.5v.31l-1.54,1.54v.31l-.93.93v.31l-1.85,2.47v.62l-1.24,2.16v.62l-.31.31v.93l-.31.31v.93l-.31.31v1.24l-.31.31v.93l-.31.31v2.16l-.31.31v7.11l.31.31v1.54l.31.31v.93l.62,1.24.31,2.16.62,1.24.62.62.31.62v.62l2.16,2.47v.31l3.09,3.09,1.85.93,1.24,1.85v.62l.31.31v.93l.31.31v.62l.62,1.24v.62l.62.62.62,1.54.62.62.62,1.24,3.71,3.71h.31l1.85,1.85.93.31.93.93,1.24.62h.62l.62.62,1.24.62h.62l.31.31h.62l.31.31h.62l1.24.62h.93l.31.31h1.24l.31.31h2.47l.31.31h6.8l.31-.31h1.54l.31-.31,2.16-.31.93-.62,1.54-.31,1.54-.93h1.85l3.4,1.85h.62l.31.31h.93l.31.31h1.24l.31.31h.93l.31.31h4.32l.31-.31,2.78-.31.31-.31h.93l.31-.31,1.54-.31,2.47-1.24.93-.93.93-.31,1.85-1.85v-.31l.62-.62,1.54-3.09v-1.85l.31-.31v-.62l1.85-1.85,3.71-1.85.31-.62,1.85-1.85v-.31l1.24-1.54.31-.62v-.62l1.24-2.47v-2.78l.31-.31v-6.8l-.31-.31v-1.85l-.31-.31v-.93l-.62-.93v-.62l-.62-.93v-.62l-1.54-3.09-.93-.93-.93-1.85-4.94-4.94h-.31l-1.54-1.24-.62-.31h-.62l-2.16-1.24h-.62l-.31-.31h-.62l-.31-.31h-.62l-.31-.31h-.62l-1.24-.62h-1.54l-.31-.31h-4.63l-.31.31h-1.54l-.31.31-1.54.31-.93.62h-.62l-3.09,1.54-1.24,1.24h-.31l-2.47,2.47v.31l-1.24,1.24v.62l-1.24,2.16v.93l-.31.31v5.56l.31.31v.93l.93,1.85,2.47,2.47.62.31v.31l.62.62v.93l-.31.62-1.85,1.85h-.31l-1.85,1.54-1.85.93h-1.24l-.31.31h-2.47l-.31.31h-1.54l-.31-.31h-1.54l-.31-.31h-.93l-.31-.31h-.62l-3.09-1.54-.93-.93h-.31l-3.09-3.09-.31-.93-.93-.93-.62-1.24v-.62l-.93-1.54v-.62l-.31-.31v-1.24l-.31-.31v-1.54l-.31-.31v-4.32l.31-.31v-1.54l.31-.31v-.93l.93-1.54.31-1.54.62-1.24.62-.62.31-.93.62-.62v-.31l3.09-3.4h.31l.93-.93h.31l1.24-1.24.62-.31h.62l.62-.62,1.85-.93h.62l.31-.31h.62l1.24-.62h1.24l.31-.31h2.16l.31-.31h2.16l.62-.62v-1.24l-.93-1.24v-.31l-2.16-2.16-.93-.31-1.54-1.24-3.71-1.85h-.93l-.31-.31h-.62l-.93-.62h-.62l-1.24-.62h-1.54l-.31-.31h-4.63l-.31.31h-.93l-1.24.62-.62.62-1.54.62-1.24,1.54h-.31l-1.24.93h-1.54l-.31.31h-1.54l-.31.31h-.93l-2.16,1.24h-.62l-1.54,1.24-.93.31-2.47,2.16h-.31l-2.47,2.47ZM427.26,266l-1.11.83-.27.83v19.1l.27.27v163.37l-.27.27v2.5l-.27.27.27,3.88.83,1.11h29.9l.83-.83.27-1.11-.27-20.49.27-.27v-39.59l.27-.27-.27-8.03.27-.27v-11.07l-.27-.27v-23.54l-.27-.27v-58.98l.27-.27v-8.3l.27-.27v-17.45l-1.11-1.11h-29.63l.02-.02ZM222.63,266l-1.11,1.11v4.71l-.27.27v11.91l.56,1.94v13.84l.27.27v43.76l-.27.27v3.04l.27.27v18.28l-.27.27.27,54.83-.27.27v13.3l.56,2.21v3.6l-.27.27-.27,17.16.83.83h18.55l.27.27,11.36-.27.83-1.38v-5.82l-.27-.27v-177.49l.27-.27v-5.54l-.27-.83-.83-.83h-29.9v.02ZM618.11,201.55l-.93.31-1.54,7.11-1.54,3.4-.31,1.54-2.16,4.02-3.4,4.32-3.09,3.09-5.25,3.4-3.4,3.4-1.54.62h-3.09l-4.63.93-4.02,1.85-2.78,1.85-4.02,3.71-1.85,2.78-2.16,4.94v1.54l-.31.31.31,7.72,1.54,4.02,3.4,3.71,2.78,1.54,3.71.31,1.54-.93.93-3.71,1.85-1.85,1.24-.31,2.16.31,2.16,1.54,1.54,1.85.93,1.85.93,3.4v4.63l-2.16,5.56-3.71,4.02-4.32,2.47-3.09.93h-5.87l-3.09-.93-1.85-1.85-.62-3.71-1.85-4.02-1.85-2.47-4.02-3.71-3.4-1.85-1.85-.31-2.16-.93-6.49-.31-5.56,1.54-4.32,2.47-3.4,4.02-1.85,4.32-1.24,1.24-2.47.31-5.25,2.16-2.78,2.16-3.71,4.02-3.4,6.49-1.24,5.87v4.02l1.24,5.87,1.85,3.4v.62l2.78,3.71,3.4,3.09,2.47,1.54,4.94,1.54h6.8l4.32-1.54,2.78-2.16,2.78-4.32.31-3.71-.93-2.78-1.85-2.16-1.24-.62h-1.24l-2.78,1.24h-1.54l-1.85-2.16-.62-1.54v-1.54l.62-2.16,1.54-2.47,4.02-3.09,4.32-1.24h3.4l1.24.62,3.09.62,4.32,3.09,2.16,2.16,2.78,4.63,1.54,5.25v6.8l-1.54,6.18-3.09,5.25-3.4,3.4-4.02,3.09-3.71,1.85-4.63,1.54-5.87.31-.31.31h-7.72l-1.54.62-4.02.62-6.18,3.4-3.09,2.78-3.4,4.32v.62l-1.54,2.47v.93l-.93,1.85-1.54,5.25-1.54,1.54-1.85.93-3.4.62-5.25,2.47-2.16,1.54-4.63,5.25-2.78,5.87-.93,3.4v1.85l.31.31h.93l2.78-4.02,3.09-2.78,6.18-3.71,1.54-.31,1.54-.93,3.4-.31.31-.31h6.18l.31.31,3.09-.31.62-.62,1.85-4.32,1.85-2.78,5.87-5.56,5.87-3.09,3.4-.31.31-.31h6.18l.31.31,3.4.31,1.85.93,6.18,1.85h2.16l2.78.62h4.94l.31-.31,3.71-.31,4.94-2.16,5.56-4.02,2.47-2.78,2.16-4.63.62-.62,1.85-.31,2.78.93h7.11l3.09-.62,6.49-3.4,5.25-4.63,2.78-4.32,1.85-4.02,1.24-4.63.31-5.56-.31-.31v-2.16l-.62-2.78-2.16-5.56-3.09-4.63-3.71-3.4-.31-1.54,3.71-4.02,3.4-5.87.31-1.54,1.24-2.47v-1.24l1.24-4.32.31-5.87-.31-.31-.62-5.25-2.47-6.8-3.09-5.25-2.16-2.47-1.85-4.02-.31-6.18.31-.31v-1.85l1.54-4.02,2.78-4.02,4.63-4.94,3.09-6.49.31-3.4.93-2.78.31-4.02-.31-.31v-3.71l-.62-1.54-.31-4.02-.62-1.85ZM61.44,201.55l-1.85,9.27v4.63l.93,3.4v1.54l2.16,6.18,1.85,3.4,4.63,4.94,2.78,4.02,1.24,3.09.31,3.09.31.31v2.78l-.62,3.09-1.54,3.4-3.71,4.94-2.47,4.63-.31,1.54-.62.93-1.54,7.41v5.25l1.54,7.72,3.09,6.8,4.02,5.25,1.54,1.24v1.24l-4.02,3.71-3.09,4.63-1.85,4.32-1.24,6.49v4.32l1.24,5.56,1.85,4.02,2.16,3.4,4.32,4.63,4.32,2.78,4.02,1.85,2.47.62h2.78l.31.31,5.25-.31,2.78-.93.93.31.93.93,2.78,5.25,2.47,2.78,5.25,3.71,4.02,1.54,3.09.62,9.58-.31,7.11-1.85,2.47-1.24,4.94-.62.31-.31h3.71l.31.31,4.94.62,5.25,2.78,3.09,2.47,4.02,4.63,2.78,5.87,1.24.93h4.02l.31-.31,6.18.31,5.56,1.85,5.87,3.4,3.71,3.71,2.16,3.09h.93l-.31-4.02-1.85-5.25-1.24-2.16-2.78-3.4-3.09-2.78-6.18-3.09-4.94-.93-1.54-1.24-1.24-2.78-.31-2.47-1.54-4.32-1.85-3.4-3.09-3.71-3.09-2.78-5.87-3.09-3.71-.62-1.24-.62h-1.85l-.31-.31h-3.4l-.31.31-6.18-.31-.31-.31h-2.47l-4.63-1.54-3.71-1.85-4.63-3.71-3.71-4.32-2.16-4.02-1.24-3.71-.31-4.94-.31-.31.62-5.87.62-.93.62-2.47,3.09-4.63,2.16-2.16,4.94-3.09,3.4-.93h4.32l4.32,1.54,4.02,3.71,1.24,3.4v2.78l-1.24,2.16-1.54.62-3.09-1.24h-1.85l-1.85.93-1.54,2.16-.62,1.54v4.02l2.78,4.94,2.47,1.85,3.4,1.54,1.54.31h6.8l1.54-.31,5.56-2.78,4.63-4.32,1.24-1.85,2.16-4.32,1.24-5.25v-5.25l-.93-4.32-1.24-3.4-2.16-4.02-5.56-5.56-5.56-2.78-3.4-.62-1.24-1.24-1.85-4.32-4.63-4.94-2.78-1.54-5.25-1.54-7.72.31-1.85.93-1.85.31-3.4,1.85-3.4,3.09-2.78,3.71-1.24,2.78-.93,4.63-1.54,1.54-3.4.93h-4.63l-5.56-1.85-1.85-1.24-4.32-4.63-2.16-4.63-.31-4.02,1.24-4.94.93-1.85,2.47-2.47,1.85-.93h1.85l2.16,1.24.62.93.31,3.09,1.24,1.24,1.24.31,2.78-.31,3.71-2.16,2.78-3.09,1.54-4.02.31-6.49-.93-4.63-.62-.93-.31-1.54-1.85-3.09-4.32-4.32-3.09-2.16-4.32-1.85-7.72-.93-4.02-3.71-6.18-4.02-4.32-4.32-2.47-3.71v-.62l-1.24-1.85-1.85-4.32-.31-2.16-.93-2.47-.31-3.4-1.24-.31ZM185.52,228.9l-.56,1.11.56,2.21,1.11,1.66.27,1.11,1.38,1.94,3.04,3.04,2.5,1.38,5.82,1.38.83.83.27,1.38,1.11,1.66.83,2.21,2.5,2.5,1.66.83,1.38.27h11.91l.56.27.83,1.11v5.26l.83,1.11.83.27h26.02l.27-.27,32.4.27,1.38,1.11v3.04l-1.38,1.38h-21.32l-1.11.56-.27.56v214.87l1.11.83h19.93l.83-.83v-64.8l.27-.27v-2.77l.83-2.77.27-3.04.83-2.21.27-2.21,1.11-2.5.56-2.5.83-1.38.56-1.94,3.88-6.65,4.44-5.54,6.09-6.09,7.2-5.26,4.71-2.21,1.11-.83h.56l2.5-1.38,6.36-1.94,1.66-.83,3.04-.27,4.98-1.11,11.63-.27,8.3,1.66h1.38l1.94.83,1.94.27,7.48,3.04,1.11.83,1.66.56,1.38,1.11,1.66.56,7.2,5.26,6.09,6.09,4.98,6.65.56,1.38,1.11,1.38,2.21,4.98.56.56.27,1.38,1.11,2.21.56,3.32.83,1.94.27,3.04,1.11,5.26v53.16l.27.27-.27,12.74,1.11,1.11h19.66l1.11-.83v-197.98l-.27-.27.27-16.62-1.11-1.11h-21.6l-1.38-.83-.27-3.04.27-.83.83-.83h9.97l.27-.27h7.2l.27.27h4.98l.27-.27,36,.27.83-.27,1.11-1.38v-5.26l.56-.83.56-.27h11.07l.27-.27h2.21l1.94-.83,2.77-3.04v-.56l1.38-2.5v-1.38l1.11-1.38,5.82-1.11,3.04-1.66,2.77-2.77,2.5-3.88,1.11-3.6-.56-.56H187.16l-.27-.27-1.38.27h.02ZM297.12,244.4l1.38-.27h82.79l3.32,2.5.83,2.21v6.36l-.27.27v7.48l.27.27v4.71l-.27.27v76.14l-.83,1.66-2.21,2.5-1.66.83h-81.69l-.83-.27-1.66-1.38-2.21-3.32v-57.87l-.27-.27.27-33.23-.27-.27v-4.15l.56-1.38,2.77-2.77h-.02ZM546.6,174.35l-.83-1.11-1.38.27-5.82,7.48-2.5,2.21-3.6,2.5-1.66.56-1.66,1.11-4.44,1.38-4.44.56-1.38.56h-1.94l-.27.27h-8.59l-.27-.27h-1.94l-4.15-.83h-2.21l-3.04-1.11-1.94-.27-1.38-.83-5.54-1.94-5.82-3.04-5.82-4.15-6.36-6.36-2.77-4.15-3.6-7.75-.83-.83-1.11-.27h-5.54l-.83-.56,1.11-1.38,1.94-.83,2.5-2.5,1.11-.27,5.26-2.77,5.26-5.82,2.21-4.98.27-3.6.27-.27-.27-6.09-.27-.83-1.11-1.11h-1.11l-1.11.56-1.38,1.38-1.94,4.15-3.32,3.88-2.21,1.94-7.48,4.15-1.94.27-2.5,1.11-2.5.27-1.94.83-5.54.56-1.66.56-12.46.83-.27.27h-2.77l-.27.27h-2.5l-.27.27-29.08.56-.27.27h-7.48l-.27.27h-17.16l-.27.27h-49.56l-.27-.27h-16.62l-.27-.27-19.93-.27-.27-.27h-10.8l-.27-.27h-6.36l-.27-.27h-3.32l-.27-.27-11.36-.56-.27-.27-4.15-.27-4.15-.83h-2.5l-6.65-1.66-.83-.56-3.04-.83-1.11-.83h-.56l-3.88-1.94-2.21-1.66-3.32-3.6-1.38-1.94-1.66-3.88-2.21-1.66h-1.38l-1.11.83-.56,1.38-.27,4.98.27.27.27,3.88,1.66,4.15,2.21,3.32,3.32,3.32,2.5,1.66,4.15,1.94,1.66,1.94,2.21,1.38.27,1.11-.56.56h-3.04l-.27-.27-1.94.27-1.11,1.11-3.32,7.2-2.77,4.15-5.54,5.82-6.92,5.26-5.26,2.77-5.54,1.94-1.11.83-2.77.56-3.04,1.11-4.15.27-3.88.83h-9.42l-3.32-.83-4.44-.56-2.77-1.11h-.83l-4.15-1.94-.83-.83-2.5-1.38-3.04-2.77-2.77-3.32-2.5-3.88-.56-.27-1.66.27-.56,1.11v4.44l.27.27.27,3.32,1.11,2.77.27,1.66,1.38,2.77,1.94,2.77,5.54,4.71,4.71,2.21,3.88,1.11,1.38,1.38.56,3.04,1.94,3.6.83.83,2.5,1.38,3.04.27,2.77.83.83.83.56,1.94,2.77,4.98,1.94,2.21,1.94,1.11h333.1l1.94-.83,2.5-2.21,1.94-4.15.56-.56.56-2.21,1.38-1.38,5.26-.83,2.21-1.11,1.38-1.38,1.66-2.5.83-3.04,1.38-2.21,6.65-2.21,3.6-2.5,3.88-3.88,2.21-3.32,1.66-4.44.83-4.15v-5.82l-.05-.05ZM281.05,216.16l.51-.27h1.03l.51-.27h4.09l.51.27h12.79l.51-.27h37.35l.51-.27h11.26l.51.27h51.16l.51.27v.56l-.51.27h-2.56l-.51.27h-3.06l-.51.27h-2.05l-.51.27h-4.61l-.51.27h-37.86l-.51-.27h-2.56l-.51-.27h-1.03l-.51.27h-4.61l-.51.27h-7.67l-.51.27h-26.6l-.51.27h-3.06l-.51.27h-3.58l-.51-.27h-3.58l-.51-.27h-3.06l-.51-.27h-1.53l-.51-.27h-.51l-.51-.27h-1.03l-.51-.27h-1.03l-.51-.27h-1.03l-.51-.27v-.27h-.06ZM500.92,210.89v1.11l-1.94,1.94h-.27l-.27.27h-.27l-.27.27h-.56l-.27.27h-6.36l-.27.27h-6.36l-.27.27h-7.48l-.27.27h-18.55l-.27-.27h-3.88l-.27-.27h-1.66l-.27-.27v-.27l.27-.27h3.32l.27-.27h1.94l.27-.27h2.5l.27-.27h5.26l.27-.27h2.21l.27-.27h2.21l.27-.27h5.54l.27-.27h4.71l.27-.27h3.6l.27-.27h3.04l.27-.27h2.77l.27-.27h2.77l.27-.27h1.94l.27-.27h2.5l.27-.27h.83l.56.56v-.07ZM177.22,211.18l.83-.83h.83l.27.27h1.11l.27.27h2.77l.27.27h4.71l.27.27h2.77l.27.27h2.77l.27.27h3.6l.27.27h8.03l.27.27h7.48l.27.27h1.66l.27.27h1.11l.27.27h1.38l.27.27h2.5l.27.27h8.03l.27.27h2.21l.27.27v.27l-.56.56h-36.28l-.27-.27h-11.36l-.27-.27h-2.77l-.27-.27h-1.38l-.27-.27h-.27l-1.11-1.11v-.27l-1.11-1.11v-.56l.07.06ZM393.48,162.71h1.66l.56.56v.27l.27.27v1.38l.27.27v1.11l.27.27v.83l.27.27v.83l.27.27v1.11l.27.27v.83l.27.27v.83l.27.27v.56l.27.27v.83l.27.27v.83l.27.27v.83l.27.27v.56l.27.27v.56l.27.27v.56l.27.27v.83l.27.27v1.11l.27.27v.83l.27.27v.56l.27.27v.56l.27.27v.56l.27.27v1.11l.27.27v.56l.27.27v.56l.27.27v.56l.27.27v.56l.27.27v.83l.27.27v.56l.27.27v.27l.27.27v.56l.27.27v.56l.27.27v.56l.27.27v.56l.27.27v.27l.27.27v.27l.27.27v.56l.27.27v.56l.27.27v.56l.27.27v.56l.27.27v.27l.27.27v.56l.27.27v1.66l-.56.56h-.27l-.27.27h-1.11l-1.11-1.11v-.27l-.56-.56v-.27l-.27-.27v-.56l-.27-.27v-.56l-.27-.27v-.56l-.27-.27v-.27l-.27-.27v-.27l-.27-.27v-.83l-.27-.27v-.56l-.27-.27v-.56l-.27-.27v-.27l-.27-.27v-.56l-.27-.27v-.83l-.27-.27v-.83l-.27-.27v-.56l-.27-.27v-.27l-.27-.27v-.56l-.27-.27v-.56l-.27-.27v-.83l-.27-.27v-.56l-.27-.27v-.56l-.27-.27v-.56l-.27-.27v-.83l-.27-.27v-.56l-.27-.27v-.56l-.27-.27v-.27l-.27-.27v-.83l-.27-.27v-1.38l-.27-.27v-1.11l-.27-.27v-.83l-.27-.27v-1.11l-.27-.27v-.83l-.27-.27v-.83l-.27-.27v-1.66l-.27-.27v-.83l-.27-.27v-.56l-.27-.27v-1.38l-.27-.27v-1.38l-.27-.27v-2.5l.56-.56h.02ZM337.27,162.71h2.5l.56.56v3.32l.27.27v32.4l-.27.27v4.15l-.83.83h-2.21l-.83-.83v-39.88l.27-.27v-.27l.56-.56h-.01ZM308.75,162.71l.56.56v.27l.27.27v1.38l-.27.27v2.21l-.27.27v2.21l-.27.27v3.6l-.27.27v2.5l-.27.27v1.66l-.27.27v1.11l-.27.27v2.5l-.27.27v2.5l-.27.27v2.21l-.27.27v1.38l-.27.27v1.11l-.27.27v1.94l-.27.27v2.5l-.27.27v1.11l-.27.27v1.38l-.27.27v1.11l-.27.27v1.11l-.27.27v1.11l-.27.27v.27l-.56.56h-1.66l-.27-.27h-.27l-.83-.83v-1.11l.27-.27v-1.11l.27-.27v-1.38l.27-.27v-2.21l.27-.27v-1.94l.27-.27v-1.38l.27-.27v-1.11l.27-.27v-1.66l.27-.27v-1.94l.27-.27v-1.94l.27-.27v-1.38l.27-.27v-.83l.27-.27v-1.11l.27-.27v-2.5l.27-.27v-1.94l.27-.27v-1.66l.27-.27v-1.11l.27-.27v-1.11l.27-.27v-3.04l.27-.27v-2.77l.27-.27v-1.11l.27-.27v-.27l.27-.27h1.94v-.02ZM282.72,162.71l.56.56v.27l.27.27v.56l-.27.27v1.38l-.27.27v.56l-.27.27v1.11l-.27.27v1.11l-.27.27v.83l-.27.27v.56l-.27.27v.83l-.27.27v.83l-.27.27v1.38l-.27.27v1.38l-.27.27v.56l-.27.27v.27l-.27.27v.83l-.27.27v1.11l-.27.27v.83l-.27.27v.27l-.27.27v.56l-.27.27v.56l-.27.27v.83l-.27.27v.83l-.27.27v.56l-.27.27v.56l-.27.27v.56l-.27.27v.83l-.27.27v.56l-.27.27v.56l-.27.27v.27l-.27.27v.56l-.27.27v.56l-.27.27v.56l-.27.27v.56l-.27.27v.27l-.27.27v.56l-.27.27v.83l-.27.27v.56l-.27.27v.56l-.27.27v.27l-.27.27v.27l-.27.27v.56l-.27.27v.56l-.27.27v.27l-.83.83h-.56l-.27.27h-.56l-.27-.27h-.56l-.83-.83v-1.11l.27-.27v-.56l.27-.27v-.27l.27-.27v-.27l.27-.27v-.56l.27-.27v-.56l.27-.27v-.56l.27-.27v-.27l.27-.27v-.27l.27-.27v-.27l.27-.27v-.56l.27-.27v-.56l.27-.27v-.27l.27-.27v-.27l.27-.27v-.56l.27-.27v-.83l.27-.27v-.56l.27-.27v-.56l.27-.27v-.56l.27-.27v-.56l.27-.27v-.83l.27-.27v-.83l.27-.27v-.56l.27-.27v-.27l.27-.27v-.83l.27-.27v-.56l.27-.27v-.56l.27-.27v-.56l.27-.27v-.56l.27-.27v-.56l.27-.27v-.83l.27-.27v-.83l.27-.27v-.83l.27-.27v-.83l.27-.27v-.56l.27-.27v-1.11l.27-.27v-.83l.27-.27v-.83l.27-.27v-.83l.27-.27v-.56l.27-.27v-1.11l.27-.27v-1.11l.27-.27v-.83l.27-.27v-.56l.83-.83h1.67ZM414.52,162.71h.27l.27-.27h.56l.27.27h.27l.83.83v.56l.27.27v.56l.27.27v.27l.27.27v.56l.27.27v.56l.27.27v.56l.27.27v.27l.27.27v.27l.27.27v.56l.27.27v.83l.27.27v.56l.27.27v.27l.27.27v.27l.27.27v.27l.27.27v.56l.27.27v.56l.27.27v.27l.27.27v.27l.27.27v.56l.27.27v.27l.27.27v.27l.27.27v.27l.27.27v.27l.27.27v.56l.27.27v.56l.27.27v.27l.27.27v.27l.56.56v.56l.27.27v.27l.27.27v.27l.27.27v.27l.56.56v.27l.27.27v.27l.27.27v.27l.27.27v.27l.56.56v.27l.27.27v.56l.27.27v.27l.56.56v.27l.27.27v.27l.27.27v.27l.27.27v.27l.56.56v.27l.27.27v.27l.56.56v.27l.56.56v.27l.56.56v.27l.56.56v.27l.83.83v.27l.56.56v.27l.83.83v.27l.27.27v.27l1.11,1.11v.56l-.27.27v.27l-.27.27h-.27l-.27.27h-.27l-.27.27h-.56l-.27-.27h-.27l-1.66-1.66v-.27l-.83-.83v-.27l-.56-.56v-.27l-.83-.83v-.27l-.27-.27v-.27l-.27-.27v-.27l-.83-.83v-.27l-.27-.27v-.56l-.27-.27v-.27l-1.11-1.11v-.27l-.27-.27v-.27l-.27-.27v-.27l-.56-.56v-.27l-.27-.27v-.27l-.27-.27v-.27l-.56-.56v-.27l-.56-.56v-.56l-.27-.27v-.27l-.27-.27v-.27l-.27-.27v-.27l-.27-.27v-.27l-.27-.27v-.27l-.27-.27v-.27l-.27-.27v-.27l-.27-.27v-.27l-.27-.27v-.27l-.27-.27v-.27l-.27-.27v-.27l-.27-.27v-.56l-.27-.27v-.27l-.27-.27v-.27l-.27-.27v-.56l-.27-.27v-.56l-.27-.27v-.56l-.56-.56v-.56l-.27-.27v-.27l-.27-.27v-.56l-.27-.27v-.56l-.27-.27v-.27l-.27-.27v-.27l-.27-.27v-.56l-.27-.27v-.56l-.27-.27v-.27l-.27-.27v-.27l-.27-.27v-.56l-.27-.27v-.56l-.27-.27v-.56l-.27-.27v-.83l-.27-.27v-.56l-.27-.27v-.56l-.27-.27v-1.66l.56-.56h-.05ZM369.11,162.44h.27l.27.27h.56l.56.56v.56l.27.27v2.5l.27.27v1.66l.27.27v1.94l.27.27v1.38l.27.27v2.21l.27.27v3.32l.27.27v2.21l.27.27v1.11l.27.27v1.11l.27.27v2.21l.27.27v2.21l.27.27v1.94l.27.27v1.38l.27.27v1.11l.27.27v1.66l.27.27v2.21l.27.27v1.38l.27.27v1.11l.27.27v1.94l-.83.83h-.56l-.27.27h-1.38l-.56-.56v-.83l-.27-.27v-1.66l-.27-.27v-1.38l-.27-.27v-1.38l-.27-.27v-.83l-.27-.27v-1.38l-.27-.27v-1.94l-.27-.27v-1.66l-.27-.27v-1.38l-.27-.27v-1.66l-.27-.27v-3.04l-.27-.27v-2.77l-.27-.27v-1.66l-.27-.27v-1.11l-.27-.27v-1.38l-.27-.27v-3.04l-.27-.27v-4.15l-.27-.27v-3.32l-.27-.27v-.83l.27-.27v-.27l.56-.56h.56l.27-.27v-.04ZM261.39,162.71l.27.27v2.21l-.27.27v.56l-.27.27v.27l-.27.27v.56l-.27.27v.56l-.27.27v.56l-.27.27v.56l-.27.27v.27l-.27.27v.27l-.27.27v.27l-.27.27v.83l-.27.27v.27l-.27.27v.27l-.27.27v.27l-.27.27v.27l-.27.27v.83l-.27.27v.56l-.27.27v.27l-.56.56v.27l-.27.27v.56l-.27.27v.27l-.27.27v.27l-.27.27v.56l-.27.27v.27l-.27.27v.27l-.27.27v.27l-.27.27v.27l-.56.56v.27l-.27.27v.56l-.27.27v.27l-.56.56v.27l-.27.27v.27l-.27.27v.27l-.27.27v.27l-.27.27v.27l-.56.56v.27l-.27.27v.27l-.27.27v.27l-.56.56v.27l-.56.56v.27l-.27.27v.27l-.83.83v.27l-.56.56v.27l-.56.56v.27l-.27.27v.27l-.27.27v.27l-.83.83v.27l-.56.56v.27l-.27.27v.27l-.83.83v.27l-1.66,1.66v.27l-.83.83h-.27l-.27.27h-.83l-.27-.27h-.56l-.83-.83v-1.11l.83-.83v-.27l1.11-1.11v-.27l.56-.56v-.27l1.11-1.11v-.27l.56-.56v-.27l1.11-1.11v-.27l.83-.83v-.27l.27-.27v-.27l.27-.27v-.27l.27-.27v-.27l.56-.56v-.27l.27-.27v-.27l.27-.27v-.27l.27-.27v-.27l.56-.56v-.27l.27-.27v-.27l.27-.27v-.27l.56-.56v-.27l.56-.56v-.27l.27-.27v-.27l.27-.27v-.27l.27-.27v-.27l.56-.56v-.56l.27-.27v-.27l.27-.27v-.27l.56-.56v-.27l.27-.27v-.56l.27-.27v-.27l.27-.27v-.27l.56-.56v-.27l.27-.27v-.56l.27-.27v-.27l.27-.27v-.27l.27-.27v-.27l.27-.27v-.27l.27-.27v-.27l.27-.27v-.27l.27-.27v-.56l.27-.27v-.27l.27-.27v-.27l.27-.27v-.56l.27-.27v-.56l.27-.27v-.27l.27-.27v-.27l.27-.27v-.27l.27-.27v-.83l.27-.27v-.56l.27-.27v-.27l.27-.27v-.27l.27-.27v-.56l.27-.27v-.56l1.11-1.11h1.11l.27.27h.27l-.04.04ZM435.29,161.89h1.11l1.11,1.11v.27l.56.56v.27l.27.27v.27l.27.27v.27l.27.27v.56l.27.27v.56l.56.56v.27l.27.27v.56l.27.27v.27l.27.27v.56l.27.27v.27l.27.27v.27l.27.27v.27l.27.27v.27l.27.27v.27l.27.27v.27l.27.27v.27l.27.27v.27l.56.56v.27l.27.27v.27l.56.56v.27l.56.56v.27l.56.56v.27l.56.56v.27l.27.27v.27l.83.83v.27l.27.27v.27l.27.27v.27l1.11,1.11v.27l.83.83v.27l.83.83v.27l.83.83v.27l.27.27v.27l.83.83v.27l1.66,1.66v.27l1.94,1.94v.27l2.5,2.5h.27l2.21,2.21h.27l2.21,2.21v.27l.27.27v.27l-.83.83h-.27l-.27.27h-.83l-.27-.27h-.27l-.27-.27h-.27l-.83-.83h-.27l-5.54-5.54h-.27l-.27-.27v-.27l-1.66-1.66v-.27l-.83-.83v-.27l-2.21-2.21v-.27l-1.11-1.11v-.27l-.56-.56v-.27l-.83-.83v-.27l-.83-.83v-.27l-.56-.56v-.27l-.27-.27v-.27l-1.11-1.11v-.27l-.27-.27v-.27l-.27-.27v-.27l-.56-.56v-.27l-.27-.27v-.27l-.56-.56v-.27l-.56-.56v-.27l-.27-.27v-.56l-.27-.27v-.27l-.27-.27v-.27l-.27-.27v-.27l-.27-.27v-.27l-.27-.27v-.27l-.27-.27v-.27l-.27-.27v-.27l-.27-.27v-.27l-.27-.27v-.27l-.27-.27v-.27l-.27-.27v-.27l-.27-.27v-.27l-.27-.27v-.27l-.27-.27v-.27l-.27-.27v-.27l-.27-.27v-.56l-.27-.27v-.27l-.27-.27v-.27l-.27-.27v-.27l-.27-.27v-.83l-.27-.27v-1.11l.83-.83-.07-.05ZM240.35,161.89l.56.56v.27l.27.27v.56l-.27.27v.56l-.27.27v.56l-.56.56v.27l-.27.27v.27l-.27.27v.27l-.27.27v.27l-.27.27v.27l-.56.56v.27l-.27.27v.56l-.56.56v.27l-.56.56v.27l-.27.27v.27l-.27.27v.27l-.27.27v.27l-.56.56v.27l-.27.27v.27l-.56.56v.27l-.56.56v.27l-.27.27v.56l-1.11,1.11v.27l-.56.56v.27l-1.11,1.11v.27l-.27.27v.27l-1.11,1.11v.27l-.27.27v.27l-1.11,1.11v.27l-1.11,1.11v.27l-1.38,1.38v.27l-1.94,1.94v.27l-.27.27h-.27l-.83.83v.27l-6.09,6.09h-.27l-1.66,1.66h-.27l-1.38,1.38h-.27l-.27.27h-.27l-.27.27h-.56l-.27-.27h-.83l-.27-.27h-.56l-.56-.56v-.56l.83-.83h.27l1.94-1.94h.27l1.94-1.94h.27l1.11-1.11h.27l5.82-5.82v-.27l1.38-1.38v-.27l1.38-1.38v-.27l1.11-1.11v-.27l1.38-1.38v-.27l.83-.83v-.27l.56-.56v-.27l.56-.56v-.27l.83-.83v-.27l.27-.27v-.27l.56-.56v-.27l.56-.56v-.27l.56-.56v-.27l1.11-1.11v-.27l.27-.27v-.27l.56-.56v-.27l.27-.27v-.27l.27-.27v-.27l.27-.27v-.27l.56-.56v-.27l.27-.27v-.27l.27-.27v-.27l.27-.27v-.27l.56-.56v-.27l.27-.27v-.27l.27-.27v-.27l.27-.27v-.27l.27-.27v-.27l.56-.56v-.27l.27-.27v-.27l.83-.83h1.38-.02Z"/>
    <g>
      <path class="cls-2" d="M354.28.33c-3.56-.16-7.13-.27-10.73-.32-.23,0-.47-.01-.7-.01v49.95c0,.57.47,1.04,1.04,1.04h38.97c.57,0,1.04-.47,1.04-1.04v-27.05c0-.57-.47-1.04-1.04-1.04h-17.78c-.57,0-1.04.47-1.04,1.04v8.28c0,.57.47,1.04,1.04,1.04h7.7c.57,0,1.04.47,1.04,1.04v6.6c0,.57-.47,1.04-1.04,1.04h-17.46c-.57,0-1.04-.47-1.04-1.04V15.77c0-.59.51-1.08,1.1-1.05,171.33,8.72,307.55,150.39,307.55,323.88s-136.22,315.17-307.55,323.9c-.59.02-1.1-.44-1.1-1.05v-23.82c0-.57.47-1.04,1.04-1.04h17.46c.57,0,1.04.47,1.04,1.04v6.6c0,.57-.47,1.04-1.04,1.04h-7.7c-.57,0-1.04.47-1.04,1.04v8.29c0,.57.47,1.04,1.04,1.04h17.78c.57,0,1.04-.47,1.04-1.04v-27.06c0-.57-.47-1.04-1.04-1.04h-38.97c-.57,0-1.04.47-1.04,1.04v49.67c.23,0,.47-.01.7-.01,3.6-.05,7.17-.16,10.73-.32,179.74-8.18,322.97-156.5,322.97-338.27S534.02,8.51,354.28.33Z"/>
      <path class="cls-2" d="M322.96.35C143.2,8.53,0,156.83,0,338.6s143.2,330.07,322.96,338.25c3.57.17,7.17.28,10.78.33.22,0,.44.01.67.01v-49.67c0-.57-.47-1.04-1.04-1.04h-38.99c-.57,0-1.04.47-1.04,1.04v27.06c0,.57.47,1.04,1.04,1.04h17.79c.57,0,1.04-.47,1.04-1.04v-8.29c0-.57-.47-1.04-1.04-1.04h-7.7c-.57,0-1.04-.47-1.04-1.04v-6.6c0-.57.47-1.04,1.04-1.04h17.45c.57,0,1.04.47,1.04,1.04v23.82c0,.59-.51,1.08-1.1,1.05C150.54,653.76,14.31,512.09,14.31,338.6S150.54,23.45,321.86,14.72c.59-.02,1.1.44,1.1,1.05v24.08c0,.57-.47,1.04-1.04,1.04h-17.45c-.57,0-1.04-.47-1.04-1.04v-6.6c0-.57.47-1.04,1.04-1.04h7.7c.57,0,1.04-.47,1.04-1.04v-8.28c0-.57-.47-1.04-1.04-1.04h-17.79c-.57,0-1.04.47-1.04,1.04v27.05c0,.57.47,1.04,1.04,1.04h38.99c.57,0,1.04-.47,1.04-1.04V0c-.22,0-.44.01-.67.01-3.61.05-7.2.16-10.78.33h0Z"/>
    </g>
  </g>
  <circle class="cls-1" cx="339.3" cy="94.15" r="21.81"/>
  <g>
    <rect class="cls-1" x="334.21" y="270.74" width="14.14" height="3.26"/>
    <rect class="cls-1" x="334.21" y="265.88" width="14.14" height="3.3"/>
    <path class="cls-2" d="M378.43,247.98h-77.12c-1.35,0-2.43,1.09-2.43,2.43v92.16c0,1.35,1.09,2.43,2.43,2.43h77.12c1.35,0,2.43-1.09,2.43-2.43v-92.16c0-1.35-1.09-2.43-2.43-2.43h0ZM326.23,262.67c.16-.57.46-1.04.9-1.38.52-.41.9-.96,1.14-1.67.25-.7.43-1.32.57-1.83.14-.54.28-.88.44-1.01.16-.14.4.12.69.78.09.19.16.48.22.88.06.4.1.74.1,1.04h22.37l.57-1.54c.14-.46.36-.68.65-.65s.95.41,1.95,1.14c.41.38.65.7.75.96s.1.48.02.67c-.14.22-.33.41-.59.57-.26.16-.51.31-.75.44-.22.16-.44.36-.69.59s-.47.48-.69.75c-.22.25-.43.49-.63.73s-.37.42-.51.53c-.36.32-.68.42-.98.28-.3-.14-.36-.49-.16-1.06l.61-1.83h-21.83c-.02.9-.16,1.64-.41,2.24-.25.59-.56,1.04-.94,1.31s-.79.38-1.25.35c-.44-.04-.84-.26-1.16-.67-.43-.49-.57-1.01-.41-1.59h.01ZM330.1,282.35c-.43,0-.9.04-1.38.12s-.82.14-.98.16l-.94-2.11c.41.09.74.14,1.01.16.3.02.62.05.95.09.33.02.65.04.96.04h9.9v-5.18c.36.05.83.15,1.42.26.59.12,1.05.22,1.35.31.63.19,1,.4,1.12.61.12.22.15.43.06.65-.09.25-.2.47-.37.67-.16.2-.25.36-.25.47v2.2h7.17l.69-1.38c.32-.65.82-.86,1.47-.65.65.22,1.66.85,3.02,1.92.59.49.86.89.79,1.2-.06.31-.4.47-1,.47h-25.02.02ZM353.97,290.4c.05.4-.01.75-.2,1.08-.36.68-.74,1.05-1.16,1.12-.42.06-.83-.05-1.2-.35-.38-.3-.77-.72-1.14-1.25-.38-.53-.74-1.06-1.1-1.61-.27-.41-.62-.82-1.01-1.25-.41-.42-.83-.82-1.26-1.2-.43-.38-.85-.73-1.26-1.04s-.77-.56-1.06-.72c-.54-.25-.8-.51-.79-.78.01-.27.36-.4,1.04-.37.38.02.85.11,1.42.26s1.15.36,1.75.63c.68.25,1.35.56,2,.91.65.37,1.26.77,1.83,1.2.32.3.65.63.98,1s.58.75.78,1.16c.22.38.36.77.41,1.16l-.02.02ZM338.65,286.1c-.14.16-.32.32-.57.47-.25.15-.43.31-.57.47-.46.49-.98,1.01-1.54,1.57-.57.56-1.21,1.09-1.92,1.61-.65.52-1.38.98-2.2,1.36-.82.4-1.73.67-2.73.84-.3.09-.59.1-.9.04-.3-.05-.52-.14-.65-.25-.11-.14-.12-.28-.04-.44.09-.16.33-.36.78-.57.52-.25,1.11-.62,1.77-1.12.67-.51,1.33-1.09,2.01-1.77.68-.68,1.29-1.42,1.83-2.22s.95-1.62,1.22-2.46h.09s.1.09.31.19.44.2.72.31c.3.14.59.28.9.44.3.16.56.3.78.41.46.25.73.46.82.63s.05.35-.09.51h-.01ZM330.91,275.99v-12.84c.38,0,.75.06,1.12.19.37.12.72.26,1.04.43.3.14.67.32,1.1.57h14.1l.61-1.31c.14-.32.36-.44.65-.37.3.09.82.41,1.54.98.7.54,1.12.95,1.25,1.25.12.28.15.52.06.72-.11.19-.26.36-.44.51s-.28.35-.28.59v8.35c0,.52-.17.93-.51,1.25-.33.31-.72.49-1.12.56-.43.05-.83-.01-1.16-.2-.35-.19-.51-.56-.51-1.1h-14.14c0,.52-.17.91-.53,1.2-.36.28-.73.46-1.14.51-.38.05-.75-.02-1.1-.22-.36-.2-.53-.56-.53-1.04h-.01ZM330.83,321.26c-.19,1.47-.46,2.84-.79,4.14-.35,1.29-.73,2.43-1.16,3.45-.38,1-.79,1.85-1.25,2.55-.44.69-.83,1.17-1.12,1.45-.79.65-1.32.86-1.61.65-.28-.22-.17-.74.35-1.59.3-.46.62-1.17.95-2.14s.64-2.1.91-3.4c.3-1.31.53-2.73.69-4.3.16-1.56.25-3.18.25-4.83v-17.24c.38,0,.78.09,1.2.25s.78.35,1.08.53.67.46,1.1.82h9.33v-5.13l2.77.61c.63.16,1,.36,1.14.57.14.22.16.43.09.65-.09.22-.21.42-.38.61-.17.19-.26.35-.26.44v2.24h7.54l.69-1.54c.3-.68.77-.86,1.41-.56.64.31,1.5.91,2.58,1.82.68.57,1,1.01.96,1.35-.04.32-.4.49-1.08.49h-24.81c0,.57,0,1.63-.02,3.18-.01,1.54-.04,3.25-.06,5.09-.02,1.88-.09,3.72-.16,5.52-.09,1.8-.19,3.25-.32,4.34h0ZM339.02,312.82v18.94c0,.43-.17.8-.51,1.12-.33.31-.72.51-1.12.59-.43.11-.82.09-1.14-.09-.32-.16-.49-.51-.49-1.01v-15.24s-.11.12-.26.31c-.15.17-.37.4-.67.67-.3.27-.65.57-1.06.88s-.84.59-1.3.84c-.59.36-.99.32-1.16-.09-.17-.41-.05-.82.38-1.22.68-.57,1.4-1.36,2.14-2.36s1.48-2.16,2.22-3.46c.77-1.27,1.47-2.68,2.11-4.21.65-1.53,1.2-3.13,1.63-4.78h.09s.06.07.19.12.3.14.51.25c.22.11.47.22.78.35.3.12.59.26.9.43.52.3.82.57.91.82s.09.47-.02.69c-.11.19-.27.38-.49.57s-.37.38-.44.57c-.27.63-.58,1.25-.94,1.88-.36.63-.69,1.19-1.01,1.67-.3.52-.57.94-.82,1.26-.25.32-.38.51-.41.53v-.02ZM344.44,323.94c-.11-.32-.21-.73-.31-1.2s-.21-.95-.35-1.45c-.16-.68-.41-1.32-.73-1.94-.32-.61-.59-1.12-.82-1.53-.22-.43-.32-.74-.32-.94s.23-.22.69-.09c.54.16,1.22.51,2.04,1.04s1.5,1.21,2.04,2.06c.54.9.78,1.79.69,2.69-.09.9-.51,1.52-1.26,1.88-.43.25-.79.31-1.06.19s-.47-.36-.61-.72h-.01ZM357.36,313.07c-.16.27-.48.41-.94.41h-3.87v16.74c0,.95-.28,1.73-.84,2.32-.56.59-1.11.9-1.66.9-.19,0-.37-.05-.56-.16-.17-.11-.3-.2-.35-.28-.22-.27-.51-.49-.88-.67s-.74-.32-1.12-.43c-.36-.09-.67-.15-.94-.21-.27-.05-.42-.09-.44-.09-.52-.05-.8-.25-.88-.57s.23-.49.91-.49h3.42v-17.08h-6.31c-.27,0-.52.01-.75.04-.23.02-.43.04-.59.04-.16.02-.38.05-.65.09l-.78-2c.38.05.7.1.98.12.25.05.51.09.79.1.28.01.56.02.79.02h6.52v-7.78c.93.19,1.83.41,2.73.65.68.22,1.08.44,1.2.67.12.23.15.47.06.72-.09.25-.22.48-.41.69-.19.22-.28.41-.28.57v4.49h.57l.65-1.42c.22-.52.52-.68.91-.51.4.17,1.04.72,1.94,1.61.65.73.9,1.24.73,1.51h.04Z"/>
  </g>
</svg>